<svg xmlns="http://www.w3.org/2000/svg" xmlns:xlink="http://www.w3.org/1999/xlink" viewBox="0 0 682.7 682.7"><defs><clipPath id="a" clipPathUnits="userSpaceOnUse"><path d="m-256.2 177.3-21.4 8.4s2.8-10.5 3.3-28c1.8-33.1-2.6-70.3 7.7-105.7-35.8-8.8-65.9-31.2-95.5-46.3A103 103 0 0 0-388-5.4l18-14.3-18-14.4s10.6-2.8 26-11c29.5-15.1 59.6-37.5 95.4-46.3-10.3-35.4-6-72.6-7.7-105.8-.3-19-3.3-28-3.3-28l21.4 8.4 3.4-22.7s7.7 7.7 22.6 16.8c34 22.2 78 39.4 103.3 79.3q6.9.9 13.6 2.5 6.1 1.7 11.9-.6a26 26 0 0 0 13-11.5c8.1-13.8 1.2-25.8 1.2-25.8l35.4-31.7 29.2 16.9-9.7 46.5s-13.8 0-21.8 13.9a26 26 0 0 0-3.4 17.3c.6 4 2.7 7.5 5.5 10.4a124 124 0 0 1 29 50.4q1.6 5.8 6.1 9.7a26 26 0 0 0 16.9 6c16 0 23-12 23-12l45 14.8V-3L23 12S16 0 0 0a26 26 0 0 0-16.8 5.8q-4.5 3.9-6.2 9.9-4 13.8-11.5 26.8T-52 66q-4.7 5-5.6 11.7c-.5 4.4 0 10 3.5 16.1 8 14 21.8 13.9 21.8 13.9l9.7 46.5-29.2 16.9-35.4-31.7s7-12-1.1-25.8a26 26 0 0 0-13.3-11.6 20 20 0 0 0-11.8-.5q-6.6 1.6-13.4 2.4c-25.4 40-69.3 57.2-103.4 79.4a100 100 0 0 0-22.6 16.9z"/></clipPath><clipPath id="b" clipPathUnits="userSpaceOnUse"><path d="m4 401-21.4 8.5s2.9-10.6 3.4-28c1.7-33.2-2.7-70.4 7.6-105.8-35.8-8.8-65.8-31.2-95.4-46.3a103 103 0 0 0-26-11l18-14.4-18-14.3s10.6-2.8 26-11.1c29.6-15.1 59.6-37.5 95.4-46.3-10.3-35.4-5.9-72.6-7.7-105.8-.3-19-3.3-28-3.3-28L4 7l3.4-22.7S15.1-8 30 1.1c34 22.2 78 39.4 103.4 79.3q6.8.8 13.5 2.4 6.1 1.6 12-.5a26 26 0 0 0 13-11.5c8-13.9 1.1-25.9 1.1-25.9l35.4-31.6L237.7 30 228 76.6s-13.9 0-21.9 14a26 26 0 0 0-3.3 17.2q1 6 5.4 10.4a124 124 0 0 1 29 50.4q1.7 5.9 6.2 9.8a26 26 0 0 0 16.8 5.9c16 0 23-12 23-12l45.1 14.8V221l-45.1 14.8s-7-12-23-12a26 26 0 0 0-16.7 5.9q-4.5 4-6.2 9.8-4.2 13.8-11.6 26.9-7.6 12.9-17.5 23.4-4.7 4.9-5.6 11.6c-.5 4.4 0 10.1 3.5 16.2 8 13.9 21.9 13.8 21.9 13.8l9.7 46.5-29.3 17L173 363s7-12-1-25.9a26 26 0 0 0-13.4-11.6 20 20 0 0 0-11.7-.5q-6.7 1.5-13.5 2.5c-25.4 40-69.3 57.1-103.4 79.3-16.2 9.8-22.6 16.9-22.6 16.9z"/></clipPath><clipPath id="c" clipPathUnits="userSpaceOnUse"><path d="m-19.7 277.5-21.4 8.4s2.8-10.5 3.3-28c1.8-33.2-2.6-70.4 7.7-105.8C-66 143.3-96 121-125.6 106a103 103 0 0 0-25.9-11.1l18-14.4-18-14.3s10.6-2.8 26-11C-96 39.8-66 17.4-30.2 8.6c-10.3-35.4-6-72.6-7.7-105.7-.3-19-3.3-28-3.3-28l21.4 8.4 3.4-22.8s7.7 7.8 22.6 17c34 22 78 39.3 103.3 79.2q6.9.9 13.6 2.5 6.1 1.6 11.9-.6a26 26 0 0 0 13-11.5c8.1-13.8 1.2-25.8 1.2-25.8l35.4-31.7 29.2 16.9-9.7 46.5s-13.8 0-21.8 13.9a26 26 0 0 0-3.4 17.2c.6 4 2.7 7.5 5.4 10.4A124 124 0 0 1 213.4 45q1.6 5.8 6.1 9.7a26 26 0 0 0 16.9 5.9c16 0 23-12 23-12l45 14.9v33.7l-45 14.8s-7-12-23-12a26 26 0 0 0-16.8 5.9q-4.4 4-6.2 9.8-4 13.9-11.5 27T184.5 166q-4.7 4.9-5.6 11.6a26 26 0 0 0 3.5 16.2c8 13.9 21.8 13.9 21.8 13.9l9.7 46.5-29.2 16.9-35.4-31.7s7-12-1.1-25.9a26 26 0 0 0-13.3-11.5 20 20 0 0 0-11.8-.5q-6.6 1.5-13.4 2.4c-25.4 40-69.3 57.2-103.4 79.4a103 103 0 0 0-22.6 16.8z"/></clipPath><clipPath id="d" clipPathUnits="userSpaceOnUse"><path d="m-80.8 205.8-21.4 8.4s2.8-10.5 3.3-28c1.8-33.2-2.6-70.4 7.7-105.8-35.8-8.8-65.9-31.2-95.5-46.2A103 103 0 0 0-212.6 23l18-14.3-18-14.3s10.6-2.8 25.9-11.1c29.6-15 59.6-37.5 95.4-46.3-10.2-35.4-5.9-72.6-7.6-105.8-.3-18.9-3.3-28-3.3-28l21.4 8.5 3.4-22.8s7.7 7.8 22.5 16.9c34.1 22.2 78 39.4 103.4 79.3q6.8.9 13.6 2.5 6.1 1.6 11.9-.6a26 26 0 0 0 13-11.5c8.1-13.9 1.2-25.8 1.2-25.8l35.4-31.7 29.2 16.9-9.7 46.5s-13.9 0-21.8 13.8a26 26 0 0 0-3.4 17.3c.6 4 2.7 7.5 5.4 10.4a124 124 0 0 1 29 50.4q1.7 5.9 6.2 9.8a26 26 0 0 0 16.9 5.9c16 0 23-12 23-12l45 14.8v33.8l-45 14.8s-7-12-23-12a26 26 0 0 0-16.8 5.9q-4.4 4-6.2 9.8-4 13.8-11.6 27-7.5 13-17.4 23.3c-3 3.2-5.2 7.2-5.6 11.6-.5 4.4 0 10.1 3.5 16.2 8 13.9 21.8 13.9 21.8 13.9l9.7 46.5-29.2 16.9-35.4-31.7s7-12-1.1-25.9a26 26 0 0 0-13.3-11.5 20 20 0 0 0-11.8-.6q-6.6 1.7-13.4 2.5c-25.4 40-69.3 57.2-103.5 79.4-16.2 9.7-22.5 16.8-22.5 16.8z"/></clipPath></defs><g><path fill="#a1947a" d="m-51.8 171-35.4-31.7c8.8-16.5-4.8-43-26.6-37.8a101 101 0 0 0 3.1-92.7 42.7 42.7 0 0 0 .1-56.9 102 102 0 0 0-3.3-93c22.2 5.3 35.4-21.4 26.7-37.7l35.4-31.7 29.2 17-9.7 46.4c-19.2.7-34.3 26.3-19.7 41.6a124 124 0 0 1 29 50.4C-17-35 12.7-35 23-51.4l45 14.8V-3L23 12C12.6-4.4-17-4.6-23 15.7A125 125 0 0 1-52 66c-14.5 15.3.4 41 19.7 41.6l9.7 46.5zM-72.9 40.7A10.8 10.8 0 1 0-73 19a10.8 10.8 0 0 0 0 21.7m8.4-36.8c15.4-15.5 26.2-52.2 1.4-73.4-7.4-6.3-19.3-5.8-23.5-.2-6 7.6-3 18.7 6.2 25.5 20.1 15 17 41.4 15.9 48" clip-path="url(#a)" transform="matrix(1.33 0 0 -1.33 531.5 315)"/><path fill="#a1321c" d="M141.8 168.7a43 43 0 0 0-16.2-6.7c-2.1-47.5-29.1-75.4-41.4-80.4 18.2 20 30.5 50.6 21.6 76.1a102 102 0 0 0-74.8-39c-16.8-31-14.6-54.3-14.6-54.3-4.9 13.3-3 37 2 54.4q-14.1.6-27.3 4c-7-32.5-3.6-66-5.2-96.2-.3-19-3.3-28-3.3-28L4 7l3.4-22.8S15.1-8 30 1.1c35.3 23 81.2 40.6 106.1 83.7a92 92 0 0 1 5.7 84" clip-path="url(#b)" transform="matrix(1.33 0 0 -1.33 184.5 613.3)"/><path fill="#a1321c" d="M-39.8 149.4c-31.6-10-58.9-29.8-85.8-43.5-16.5-9.2-25.9-11.1-25.9-11.1l18-14.3-18-14.4s10.6-2.8 26-11C-88 35.8-49.9 5 0 5c38.5 0 63 20.2 75.5 37a43 43 0 0 0-13.9 10.7c-42-21.8-79.7-12.6-90.3-4.4 26.3-5.7 59-1 76.7 19.4A102 102 0 0 0-23.2 113c-35.4-1-54.4-14.6-54.4-14.6 9 11 30.5 21 48 25.4q-6.5 12.7-10.2 25.6" clip-path="url(#c)" transform="matrix(1.33 0 0 -1.33 216.1 448.6)"/><path fill="#a1321c" d="m-77.4 228.5-3.4-22.7-21.4 8.4s2.8-10.5 3.3-28c2.2-42-5.4-90.6 19.5-133.7A92 92 0 0 1-9.7 5.6C-10 10-9.8 16.2-7.4 23-48.1 49-58 86.4-56.3 99-46 67-20.4 42.3 5.4 41.5q4.8 4 10.7 6.5C33 97-9.7 152.6-37.3 166.4c26.5-4.6 79.7-46.7 79.8-116q7.8-1.9 14.3-6.3a91 91 0 0 1-5.5 83.8C26.3 171-19.5 188.7-55 211.7a103 103 0 0 0-22.5 16.8" clip-path="url(#d)" transform="matrix(1.33 0 0 -1.33 297.6 353)"/><path fill="#a1947a" d="M341.5 295a46.2 46.2 0 1 0-.2 92.4 46.2 46.2 0 0 0 .2-92.4m-13 24h25.8l13 22.3-13 22.3h-25.7l-12.9-22.3z" overflow="visible"/></g></svg>
